HIERARCHY
ROOT root
{
  OFFSET 0.000000 0.000000 0.000000
  CHANNELS 6 Xposition Yposition Zposition Zrotation Yrotation Xrotation
  JOINT lhipjoint
  {
    OFFSET 0.000000 0.000000 0.000000
    CHANNELS 3 Zrotation Yrotation Xrotation
    JOINT lfemur
    {
      OFFSET 0.077512 -0.103766 0.048358
      CHANNELS 3 Zrotation Yrotation Xrotation
      JOINT ltibia
      {
        OFFSET 0.143271 -0.393634 0.000000
        CHANNELS 3 Zrotation Yrotation Xrotation
        JOINT lfoot
        {
          OFFSET 0.149745 -0.411421 0.000000
          CHANNELS 3 Zrotation Yrotation Xrotation
          JOINT ltoes
          {
            OFFSET 0.012474 -0.034272 0.129696
            CHANNELS 3 Zrotation Yrotation Xrotation
            End Site
            {
              OFFSET 0.000000 -0.000000 0.067298
            }
          }
        }
      }
    }
  }
  JOINT rhipjoint
  {
    OFFSET 0.000000 0.000000 0.000000
    CHANNELS 3 Zrotation Yrotation Xrotation
    JOINT rfemur
    {
      OFFSET -0.073466 -0.103765 0.048358
      CHANNELS 3 Zrotation Yrotation Xrotation
      JOINT rtibia
      {
        OFFSET -0.148803 -0.408833 0.000000
        CHANNELS 3 Zrotation Yrotation Xrotation
        JOINT rfoot
        {
          OFFSET -0.147898 -0.406346 0.000000
          CHANNELS 3 Zrotation Yrotation Xrotation
          JOINT rtoes
          {
            OFFSET -0.011721 -0.032203 0.136823
            CHANNELS 3 Zrotation Yrotation Xrotation
            End Site
            {
              OFFSET -0.000000 -0.000000 0.070544
            }
          }
        }
      }
    }
  }
  JOINT lowerback
  {
    OFFSET 0.000000 0.000000 0.000000
    CHANNELS 3 Zrotation Yrotation Xrotation
    JOINT upperback
    {
      OFFSET 0.003239 0.120882 -0.012878
      CHANNELS 3 Zrotation Yrotation Xrotation
      JOINT thorax
      {
        OFFSET 0.001579 0.120885 0.004598
        CHANNELS 3 Zrotation Yrotation Xrotation
        JOINT lowerneck
        {
          OFFSET 0.000073 0.123182 0.010643
          CHANNELS 3 Zrotation Yrotation Xrotation
          JOINT upperneck
          {
            OFFSET -0.003962 0.089692 0.018615
            CHANNELS 3 Zrotation Yrotation Xrotation
            JOINT head
            {
              OFFSET -0.001809 0.093293 -0.011960
              CHANNELS 3 Zrotation Yrotation Xrotation
              End Site
              {
                OFFSET -0.000410 0.094143 -0.006124
              }
            }
          }
        }
        JOINT lclavicle
        {
          OFFSET 0.000073 0.123182 0.010643
          CHANNELS 3 Zrotation Yrotation Xrotation
          JOINT lhumerus
          {
            OFFSET 0.221747 0.055052 -0.004480
            CHANNELS 3 Zrotation Yrotation Xrotation
            JOINT lradius
            {
              OFFSET 0.315155 -0.000000 -0.000000
              CHANNELS 3 Zrotation Yrotation Xrotation
              JOINT lwrist
              {
                OFFSET 0.209458 -0.000000 0.000000
                CHANNELS 3 Zrotation Yrotation Xrotation
                End Site
                {
                  OFFSET 0.104729 -0.000000 -0.000000
                }
              }
            }
          }
        }
        JOINT rclavicle
        {
          OFFSET 0.000073 0.123182 0.010643
          CHANNELS 3 Zrotation Yrotation Xrotation
          JOINT rhumerus
          {
            OFFSET -0.220075 0.061461 -0.012750
            CHANNELS 3 Zrotation Yrotation Xrotation
            JOINT rradius
            {
              OFFSET -0.293713 -0.000000 -0.000000
              CHANNELS 3 Zrotation Yrotation Xrotation
              JOINT rwrist
              {
                OFFSET -0.205987 -0.000000 0.000000
                CHANNELS 3 Zrotation Yrotation Xrotation
                End Site
                {
                  OFFSET -0.102993 -0.000000 -0.000000
                }
              }
            }
          }
        }
      }
    }
  }
}
MOTION
Frames: 7
Frame Time: 0.04166667
0.00000 0.89584 0.00000 -14.54588 -0.00003 54.71879 0.00000 -0.00000 0.00000 16.83505 -13.91594 -84.14317 13.58325 18.98274 70.92761 2.07177 -15.27316 -26.43368 0.13872 -2.40045 -6.61372 0.00000 -0.00000 0.00000 16.44493 1.87580 -36.84816 -4.91730 -13.29005 40.46418 -1.64881 -3.10593 -25.54094 -1.00124 6.36751 -17.85455 3.20676 -0.28725 45.95880 3.09878 4.61914 8.82225 -0.59512 2.98346 -11.32840 -1.59703 3.31893 -18.33740 -4.42720 5.31904 3.61234 -0.66094 2.38576 4.08273 0.00000 0.00000 0.00000 -57.07022 -63.36778 7.87864 89.07786 -59.99679 -59.20141 -0.00000 0.00000 -0.64515 0.00000 0.00000 0.00000 -1.64096 80.62101 -28.56998 -31.60373 42.22896 -12.47368 0.00000 -0.00000 -1.07686
0.00000 0.92910 0.00000 -14.61055 0.89349 68.04052 0.00000 -0.00000 0.00000 14.72507 -14.84997 -83.94797 9.45478 17.09163 57.65000 1.56883 -13.87951 -23.04665 0.05656 -1.53460 -4.22111 0.00000 -0.00000 0.00000 12.82194 3.77948 -41.60142 -5.91721 -14.34763 44.64853 -1.65864 -0.92120 -24.70154 -1.09428 6.64761 -18.67548 4.40187 0.30828 41.88640 3.85917 5.02107 7.60014 -0.46328 2.85309 -11.53720 -0.65358 3.11771 -17.71260 -4.60219 4.81197 2.79915 -0.92283 2.17250 3.75401 0.00000 0.00000 0.00000 -26.26553 -67.33300 -18.21481 75.60480 -59.20234 -47.56678 -0.00000 -0.00000 3.60976 0.00000 0.00000 0.00000 -44.23904 78.22402 -67.28466 -29.09066 40.10110 -10.81907 0.00000 0.00000 1.29147
0.00000 0.96075 0.00000 -12.03447 2.75497 79.84329 0.00000 -0.00000 0.00000 12.47089 -17.18321 -81.01058 4.89431 13.26378 40.36409 0.08963 -13.51778 -10.55569 0.14173 -2.42622 -6.68514 0.00000 -0.00000 0.00000 10.52857 2.16991 -45.36261 -9.27630 -16.98227 57.04084 -1.39966 1.94232 -21.82017 -1.07008 6.57605 -18.46531 6.50144 -0.36634 39.93080 4.69172 4.66900 6.51205 -0.44443 2.45713 -12.06740 0.45059 2.77885 -17.07280 -4.58669 4.09361 0.77121 -1.27261 1.90788 3.40548 -0.00000 -0.00000 0.00000 5.01059 -64.82517 -46.15151 62.57687 -56.95839 -36.49338 -0.00000 -0.00000 6.95081 -0.00000 -0.00000 0.00000 -69.51195 72.29074 -89.20809 -25.68127 36.89224 -8.69561 0.00000 0.00000 6.72937
0.00000 0.97582 0.00000 -9.26853 4.51902 93.23590 0.00000 -0.00000 0.00000 9.79027 -17.26296 -80.69985 2.20939 9.28926 26.70441 -0.09994 -6.46161 -1.08231 1.32908 -7.30061 -20.60906 0.00000 -0.00000 0.00000 11.22105 -0.27303 -49.88805 -13.24067 -18.86734 69.87135 -0.90343 -1.79429 -18.68840 -0.24159 3.16307 -8.73308 9.58839 1.31955 35.45150 5.71341 4.69588 5.03406 -0.63935 1.29466 -11.82730 1.90994 2.20985 -16.65370 -4.01505 3.01212 -0.28125 -1.43456 1.43882 2.94309 -0.00000 0.00000 0.00000 23.75209 -60.65936 -63.48190 50.57444 -53.22457 -26.63359 -0.00000 -0.00000 14.76600 -0.00000 0.00000 0.00000 -77.38909 67.46744 -97.21533 -23.53862 34.67255 -7.44245 0.00000 0.00000 11.15590
0.00000 0.96546 0.00000 -8.42716 5.21245 103.59577 0.00000 -0.00000 0.00000 6.15707 -16.01577 -83.74012 3.28847 11.14799 32.78063 -0.09250 -5.38807 1.80223 1.49712 -7.72898 -21.89389 0.00000 -0.00000 0.00000 12.57005 -3.34952 -50.29747 -15.87823 -19.58771 77.86870 -0.64306 -2.61526 -16.31949 -0.00693 0.53749 -1.47696 10.49390 2.03764 33.31150 6.20446 6.09679 3.87041 -1.17171 1.92167 -12.29870 2.63757 1.44247 -16.07050 -2.02868 1.71894 0.59366 -1.00781 0.85976 3.07422 0.00000 -0.00000 0.00000 31.61621 -57.78217 -70.97275 42.93371 -49.71509 -20.65016 -0.00000 -0.00000 24.09090 0.00000 -0.00000 0.00000 -79.66210 66.63789 -100.91139 -23.11895 34.21863 -7.20508 0.00000 0.00000 15.82640
0.00000 0.92999 0.00000 -8.67208 4.58171 111.24081 0.00000 -0.00000 0.00000 5.73619 -16.54384 -85.55236 7.18107 15.48249 49.55585 -0.27348 -10.25478 8.54844 1.18762 -6.91571 -19.46589 0.00000 -0.00000 0.00000 11.94517 -8.13873 -48.27983 -16.95746 -19.77659 81.07231 -0.55208 -0.96461 -14.41785 -0.01435 0.77357 -2.12599 10.24070 1.17699 33.22710 6.07190 7.10157 3.02546 -1.79331 3.06449 -13.31560 1.99954 0.57093 -15.25550 2.38046 0.33861 2.63380 0.46704 0.36224 3.58235 0.00000 0.00000 0.00000 23.39830 -55.94165 -59.31828 50.87548 -53.34255 -26.87490 -0.00000 -0.00000 30.40180 0.00000 0.00000 0.00000 -72.30807 72.20686 -94.79101 -27.66810 38.80889 -9.91498 0.00000 0.00000 21.95440
0.00000 0.87452 0.00000 -11.15306 4.58533 116.97171 0.00000 -0.00000 0.00000 3.78889 -15.50131 -82.34282 11.73700 18.27725 65.15272 -0.03864 -9.88799 13.42615 0.70047 -5.34971 -14.90874 0.00000 -0.00000 0.00000 9.96880 -12.60848 -45.45913 -17.38693 -19.83550 82.33973 -0.48400 -0.33981 -13.27058 -0.01173 0.69920 -1.92150 9.68477 1.71715 34.23970 6.76246 7.79626 3.34711 -1.07843 3.38828 -13.50320 0.23371 -0.12348 -15.42180 7.09531 -0.87903 6.69597 2.10408 0.07414 4.55119 -0.00000 -0.00000 0.00000 1.46485 -52.45302 -35.28301 83.56654 -59.84302 -54.43140 -0.00000 -0.00000 34.24480 -0.00000 -0.00000 0.00000 -40.22214 80.01043 -66.52219 -41.58587 48.98189 -19.62753 0.00000 0.00000 29.69680
